<svg id="my-svg" width="100%" xmlns="http://www.w3.org/2000/svg" xmlns:xlink="http://www.w3.org/1999/xlink" style="max-width: 1519.58px; background-color: rgb(15, 20, 25);" viewBox="-8 -8 1519.578125 707" role="graphics-document document" aria-roledescription="flowchart-v2"><style>#my-svg{font-family:"trebuchet ms",verdana,arial,sans-serif;font-size:16px;fill:#ccc;}#my-svg .error-icon{fill:#a44141;}#my-svg .error-text{fill:#ddd;stroke:#ddd;}#my-svg .edge-thickness-normal{stroke-width:2px;}#my-svg .edge-thickness-thick{stroke-width:3.5px;}#my-svg .edge-pattern-solid{stroke-dasharray:0;}#my-svg .edge-pattern-dashed{stroke-dasharray:3;}#my-svg .edge-pattern-dotted{stroke-dasharray:2;}#my-svg .marker{fill:lightgrey;stroke:lightgrey;}#my-svg .marker.cross{stroke:lightgrey;}#my-svg svg{font-family:"trebuchet ms",verdana,arial,sans-serif;font-size:16px;}#my-svg .label{font-family:"trebuchet ms",verdana,arial,sans-serif;color:#ccc;}#my-svg .cluster-label text{fill:#F9FFFE;}#my-svg .cluster-label span,#my-svg p{color:#F9FFFE;}#my-svg .label text,#my-svg span,#my-svg p{fill:#ccc;color:#ccc;}#my-svg .node rect,#my-svg .node circle,#my-svg .node ellipse,#my-svg .node polygon,#my-svg .node path{fill:#1f2020;stroke:#81B1DB;stroke-width:1px;}#my-svg .flowchart-label text{text-anchor:middle;}#my-svg .node .katex path{fill:#000;stroke:#000;stroke-width:1px;}#my-svg .node .label{text-align:center;}#my-svg .node.clickable{cursor:pointer;}#my-svg .arrowheadPath{fill:lightgrey;}#my-svg .edgePath .path{stroke:lightgrey;stroke-width:2.0px;}#my-svg .flowchart-link{stroke:lightgrey;fill:none;}#my-svg .edgeLabel{background-color:hsl(0, 0%, 34.4117647059%);text-align:center;}#my-svg .edgeLabel rect{opacity:0.5;background-color:hsl(0, 0%, 34.4117647059%);fill:hsl(0, 0%, 34.4117647059%);}#my-svg .labelBkg{background-color:rgba(87.75, 87.75, 87.75, 0.5);}#my-svg .cluster rect{fill:hsl(180, 1.5873015873%, 28.3529411765%);stroke:rgba(255, 255, 255, 0.25);stroke-width:1px;}#my-svg .cluster text{fill:#F9FFFE;}#my-svg .cluster span,#my-svg p{color:#F9FFFE;}#my-svg div.mermaidTooltip{position:absolute;text-align:center;max-width:200px;padding:2px;font-family:"trebuchet ms",verdana,arial,sans-serif;font-size:12px;background:hsl(20, 1.5873015873%, 12.3529411765%);border:1px solid rgba(255, 255, 255, 0.25);border-radius:2px;pointer-events:none;z-index:100;}#my-svg .flowchartTitleText{text-anchor:middle;font-size:18px;fill:#ccc;}#my-svg :root{--mermaid-font-family:"trebuchet ms",verdana,arial,sans-serif;}#my-svg .app&gt;*{fill:rgb(27, 58, 75)!important;stroke:rgb(74, 163, 199)!important;color:rgb(230, 241, 245)!important;}#my-svg .app span{fill:rgb(27, 58, 75)!important;stroke:rgb(74, 163, 199)!important;color:rgb(230, 241, 245)!important;}#my-svg .app tspan{fill:rgb(230, 241, 245)!important;}#my-svg .harness&gt;*{fill:rgb(42, 33, 64)!important;stroke:rgb(154, 143, 214)!important;color:rgb(238, 233, 251)!important;}#my-svg .harness span{fill:rgb(42, 33, 64)!important;stroke:rgb(154, 143, 214)!important;color:rgb(238, 233, 251)!important;}#my-svg .harness tspan{fill:rgb(238, 233, 251)!important;}#my-svg .out&gt;*{fill:rgb(18, 51, 41)!important;stroke:rgb(63, 174, 130)!important;color:rgb(226, 245, 236)!important;}#my-svg .out span{fill:rgb(18, 51, 41)!important;stroke:rgb(63, 174, 130)!important;color:rgb(226, 245, 236)!important;}#my-svg .out tspan{fill:rgb(226, 245, 236)!important;}#my-svg .store&gt;*{fill:rgb(58, 44, 20)!important;stroke:rgb(199, 154, 63)!important;color:rgb(247, 237, 219)!important;}#my-svg .store span{fill:rgb(58, 44, 20)!important;stroke:rgb(199, 154, 63)!important;color:rgb(247, 237, 219)!important;}#my-svg .store tspan{fill:rgb(247, 237, 219)!important;}</style><g><marker id="my-svg_flowchart-pointEnd" class="marker flowchart" viewBox="0 0 10 10" refX="6" refY="5" markerUnits="userSpaceOnUse" markerWidth="12" markerHeight="12" orient="auto"><path d="M 0 0 L 10 5 L 0 10 z" class="arrowMarkerPath" style="stroke-width: 1; stroke-dasharray: 1, 0;"/></marker><marker id="my-svg_flowchart-pointStart" class="marker flowchart" viewBox="0 0 10 10" refX="4.5" refY="5" markerUnits="userSpaceOnUse" markerWidth="12" markerHeight="12" orient="auto"><path d="M 0 5 L 10 10 L 10 0 z" class="arrowMarkerPath" style="stroke-width: 1; stroke-dasharray: 1, 0;"/></marker><marker id="my-svg_flowchart-circleEnd" class="marker flowchart" viewBox="0 0 10 10" refX="11" refY="5" markerUnits="userSpaceOnUse" markerWidth="11" markerHeight="11" orient="auto"><circle cx="5" cy="5" r="5" class="arrowMarkerPath" style="stroke-width: 1; stroke-dasharray: 1, 0;"/></marker><marker id="my-svg_flowchart-circleStart" class="marker flowchart" viewBox="0 0 10 10" refX="-1" refY="5" markerUnits="userSpaceOnUse" markerWidth="11" markerHeight="11" orient="auto"><circle cx="5" cy="5" r="5" class="arrowMarkerPath" style="stroke-width: 1; stroke-dasharray: 1, 0;"/></marker><marker id="my-svg_flowchart-crossEnd" class="marker cross flowchart" viewBox="0 0 11 11" refX="12" refY="5.2" markerUnits="userSpaceOnUse" markerWidth="11" markerHeight="11" orient="auto"><path d="M 1,1 l 9,9 M 10,1 l -9,9" class="arrowMarkerPath" style="stroke-width: 2; stroke-dasharray: 1, 0;"/></marker><marker id="my-svg_flowchart-crossStart" class="marker cross flowchart" viewBox="0 0 11 11" refX="-1" refY="5.2" markerUnits="userSpaceOnUse" markerWidth="11" markerHeight="11" orient="auto"><path d="M 1,1 l 9,9 M 10,1 l -9,9" class="arrowMarkerPath" style="stroke-width: 2; stroke-dasharray: 1, 0;"/></marker><g class="root"><g class="clusters"><g class="cluster default flowchart-label" id="STORE"><rect style="" rx="0" ry="0" x="746.4375" y="588" width="757.140625" height="103"/><g class="cluster-label" transform="translate(1080.7265625, 588)"><foreignObject width="88.5625" height="19"><div xmlns="http://www.w3.org/1999/xhtml" style="display: inline-block; white-space: nowrap;"><span class="nodeLabel">Storage root</span></div></foreignObject></g></g><g class="cluster default flowchart-label" id="OUT"><rect style="" rx="0" ry="0" x="0" y="588" width="726.4375" height="103"/><g class="cluster-label" transform="translate(283.0625, 588)"><foreignObject width="160.3125" height="19"><div xmlns="http://www.w3.org/1999/xhtml" style="display: inline-block; white-space: nowrap;"><span class="nodeLabel">Providers and catalogs</span></div></foreignObject></g></g><g class="cluster default flowchart-label" id="HARNESS"><rect style="" rx="0" ry="0" x="76.2109375" y="172" width="1348.35546875" height="366"/><g class="cluster-label" transform="translate(706.318359375, 172)"><foreignObject width="88.140625" height="19"><div xmlns="http://www.w3.org/1999/xhtml" style="display: inline-block; white-space: nowrap;"><span class="nodeLabel">Eval harness</span></div></foreignObject></g></g><g class="cluster default flowchart-label" id="APP"><rect style="" rx="0" ry="0" x="344.125" y="0" width="626.28125" height="103"/><g class="cluster-label" transform="translate(577.2734375, 0)"><foreignObject width="159.984375" height="19"><div xmlns="http://www.w3.org/1999/xhtml" style="display: inline-block; white-space: nowrap;"><span class="nodeLabel">Application under test</span></div></foreignObject></g></g></g><g class="edgePaths"><path d="M480.445,78L480.445,82.167C480.445,86.333,480.445,94.667,480.445,104.583C480.445,114.5,480.445,126,480.445,137.5C480.445,149,480.445,160.5,505.523,172.249C530.601,183.999,580.756,195.998,605.834,201.997L630.912,207.997" id="L-CR-HOST-0" class="edge-thickness-normal edge-pattern-solid flowchart-link LS-CR LE-HOST" style="fill:none;" marker-end="url(#my-svg_flowchart-pointEnd)"/><path d="M783.586,78L783.586,82.167C783.586,86.333,783.586,94.667,783.586,104.583C783.586,114.5,783.586,126,783.586,137.5C783.586,149,783.586,160.5,780.844,169.723C778.101,178.947,772.617,185.893,769.875,189.367L767.132,192.84" id="L-WL-HOST-0" class="edge-thickness-normal edge-pattern-solid flowchart-link LS-WL LE-HOST" style="fill:none;" marker-end="url(#my-svg_flowchart-pointEnd)"/><path d="M735.426,269L735.426,274.75C735.426,280.5,735.426,292,735.426,302.617C735.426,313.233,735.426,322.967,735.426,327.833L735.426,332.7" id="L-HOST-RUN-0" class="edge-thickness-normal edge-pattern-solid flowchart-link LS-HOST LE-RUN" style="fill:none;" marker-end="url(#my-svg_flowchart-pointEnd)"/><path d="M646.426,382.768L558.057,391.473C469.688,400.178,292.949,417.589,204.58,434.878C116.211,452.167,116.211,469.333,116.211,486.5C116.211,503.667,116.211,520.833,116.211,533.583C116.211,546.333,116.211,554.667,116.211,563C116.211,571.333,116.211,579.667,116.211,588.7C116.211,597.733,116.211,607.467,116.211,612.333L116.211,617.2" id="L-RUN-CAND-0" class="edge-thickness-normal edge-pattern-solid flowchart-link LS-RUN LE-CAND" style="fill:none;" marker-end="url(#my-svg_flowchart-pointEnd)"/><path d="M646.426,388.375L598.313,396.146C550.201,403.917,453.975,419.458,405.863,435.812C357.75,452.167,357.75,469.333,357.75,486.5C357.75,503.667,357.75,520.833,357.75,533.583C357.75,546.333,357.75,554.667,357.75,563C357.75,571.333,357.75,579.667,357.75,588.7C357.75,597.733,357.75,607.467,357.75,612.333L357.75,617.2" id="L-RUN-CAT-0" class="edge-thickness-normal edge-pattern-solid flowchart-link LS-RUN LE-CAT" style="fill:none;" marker-end="url(#my-svg_flowchart-pointEnd)"/><path d="M604.758,513L604.758,517.167C604.758,521.333,604.758,529.667,604.758,538C604.758,546.333,604.758,554.667,604.758,563C604.758,571.333,604.758,579.667,604.758,587.117C604.758,594.567,604.758,601.133,604.758,604.417L604.758,607.7" id="L-EV-JUDGE-0" class="edge-thickness-normal edge-pattern-solid flowchart-link LS-EV LE-JUDGE" style="fill:none;" marker-end="url(#my-svg_flowchart-pointEnd)"/><path d="M658.31,410L649.385,414.167C640.459,418.333,622.609,426.667,613.683,434.117C604.758,441.567,604.758,448.133,604.758,451.417L604.758,454.7" id="L-RUN-EV-0" class="edge-thickness-normal edge-pattern-solid flowchart-link LS-RUN LE-EV" style="fill:none;" marker-end="url(#my-svg_flowchart-pointEnd)"/><path d="M824.426,391.994L859.879,399.161C895.332,406.329,966.238,420.665,1001.691,436.416C1037.145,452.167,1037.145,469.333,1037.145,486.5C1037.145,503.667,1037.145,520.833,1037.145,533.583C1037.145,546.333,1037.145,554.667,1037.145,563C1037.145,571.333,1037.145,579.667,1046.817,589.157C1056.489,598.648,1075.833,609.296,1085.505,614.62L1095.177,619.944" id="L-RUN-RES-0" class="edge-thickness-normal edge-pattern-solid flowchart-link LS-RUN LE-RES" style="fill:none;" marker-end="url(#my-svg_flowchart-pointEnd)"/><path d="M824.426,389.02L869.836,396.683C915.246,404.346,1006.066,419.673,1051.477,435.92C1096.887,452.167,1096.887,469.333,1096.887,486.5C1096.887,503.667,1096.887,520.833,1096.887,533.583C1096.887,546.333,1096.887,554.667,1096.887,563C1096.887,571.333,1096.887,579.667,1074.21,589.374C1051.533,599.081,1006.179,610.161,983.502,615.702L960.824,621.242" id="L-RUN-CACHE-0" class="edge-thickness-normal edge-pattern-solid flowchart-link LS-RUN LE-CACHE" style="fill:none;" marker-end="url(#my-svg_flowchart-pointEnd)"/><path d="M1252.98,513L1252.98,517.167C1252.98,521.333,1252.98,529.667,1252.98,538C1252.98,546.333,1252.98,554.667,1252.98,563C1252.98,571.333,1252.98,579.667,1259.776,587.574C1266.572,595.481,1280.163,602.963,1286.959,606.704L1293.754,610.444" id="L-RPT-REPORTS-0" class="edge-thickness-normal edge-pattern-solid flowchart-link LS-RPT LE-REPORTS" style="fill:none;" marker-end="url(#my-svg_flowchart-pointEnd)"/><path d="M824.426,384.49L895.852,392.908C967.277,401.326,1110.129,418.163,1181.555,429.865C1252.98,441.567,1252.98,448.133,1252.98,451.417L1252.98,454.7" id="L-RUN-RPT-0" class="edge-thickness-normal edge-pattern-solid flowchart-link LS-RUN LE-RPT" style="fill:none;" marker-end="url(#my-svg_flowchart-pointEnd)"/><path d="M1402.709,78L1401.56,82.167C1400.412,86.333,1398.114,94.667,1396.965,104.583C1395.816,114.5,1395.816,126,1395.816,137.5C1395.816,149,1395.816,160.5,1303.191,174.806C1210.565,189.112,1025.314,206.223,932.688,214.779L840.063,223.335" id="L-DASH-HOST-0" class="edge-thickness-normal edge-pattern-dotted flowchart-link LS-DASH LE-HOST" style="fill:none;stroke-width:2px;stroke-dasharray:3;" marker-end="url(#my-svg_flowchart-pointEnd)"/><path d="M1447.868,78L1453.82,82.167C1459.771,86.333,1471.675,94.667,1477.626,104.583C1483.578,114.5,1483.578,126,1483.578,137.5C1483.578,149,1483.578,160.5,1483.578,176.417C1483.578,192.333,1483.578,212.667,1483.578,234.583C1483.578,256.5,1483.578,280,1483.578,303.5C1483.578,327,1483.578,350.5,1483.578,372.417C1483.578,394.333,1483.578,414.667,1483.578,433.417C1483.578,452.167,1483.578,469.333,1483.578,486.5C1483.578,503.667,1483.578,520.833,1483.578,533.583C1483.578,546.333,1483.578,554.667,1483.578,562.117C1483.578,569.567,1483.578,576.133,1483.578,579.417L1483.578,582.7" id="L-DASH-STORE-0" class="edge-thickness-normal edge-pattern-solid flowchart-link LS-DASH LE-STORE" style="fill:none;" marker-end="url(#my-svg_flowchart-pointEnd)"/></g><g class="edgeLabels"><g class="edgeLabel"><g class="label" transform="translate(0, 0)"><foreignObject width="0" height="0"><div xmlns="http://www.w3.org/1999/xhtml" style="display: inline-block; white-space: nowrap;"><span class="edgeLabel"></span></div></foreignObject></g></g><g class="edgeLabel"><g class="label" transform="translate(0, 0)"><foreignObject width="0" height="0"><div xmlns="http://www.w3.org/1999/xhtml" style="display: inline-block; white-space: nowrap;"><span class="edgeLabel"></span></div></foreignObject></g></g><g class="edgeLabel" transform="translate(735.42578125, 303.5)"><g class="label" transform="translate(-90.9921875, -9.5)"><foreignObject width="181.984375" height="19"><div xmlns="http://www.w3.org/1999/xhtml" style="display: inline-block; white-space: nowrap;"><span class="edgeLabel">recording clients per role</span></div></foreignObject></g></g><g class="edgeLabel"><g class="label" transform="translate(0, 0)"><foreignObject width="0" height="0"><div xmlns="http://www.w3.org/1999/xhtml" style="display: inline-block; white-space: nowrap;"><span class="edgeLabel"></span></div></foreignObject></g></g><g class="edgeLabel"><g class="label" transform="translate(0, 0)"><foreignObject width="0" height="0"><div xmlns="http://www.w3.org/1999/xhtml" style="display: inline-block; white-space: nowrap;"><span class="edgeLabel"></span></div></foreignObject></g></g><g class="edgeLabel"><g class="label" transform="translate(0, 0)"><foreignObject width="0" height="0"><div xmlns="http://www.w3.org/1999/xhtml" style="display: inline-block; white-space: nowrap;"><span class="edgeLabel"></span></div></foreignObject></g></g><g class="edgeLabel"><g class="label" transform="translate(0, 0)"><foreignObject width="0" height="0"><div xmlns="http://www.w3.org/1999/xhtml" style="display: inline-block; white-space: nowrap;"><span class="edgeLabel"></span></div></foreignObject></g></g><g class="edgeLabel"><g class="label" transform="translate(0, 0)"><foreignObject width="0" height="0"><div xmlns="http://www.w3.org/1999/xhtml" style="display: inline-block; white-space: nowrap;"><span class="edgeLabel"></span></div></foreignObject></g></g><g class="edgeLabel"><g class="label" transform="translate(0, 0)"><foreignObject width="0" height="0"><div xmlns="http://www.w3.org/1999/xhtml" style="display: inline-block; white-space: nowrap;"><span class="edgeLabel"></span></div></foreignObject></g></g><g class="edgeLabel"><g class="label" transform="translate(0, 0)"><foreignObject width="0" height="0"><div xmlns="http://www.w3.org/1999/xhtml" style="display: inline-block; white-space: nowrap;"><span class="edgeLabel"></span></div></foreignObject></g></g><g class="edgeLabel"><g class="label" transform="translate(0, 0)"><foreignObject width="0" height="0"><div xmlns="http://www.w3.org/1999/xhtml" style="display: inline-block; white-space: nowrap;"><span class="edgeLabel"></span></div></foreignObject></g></g><g class="edgeLabel" transform="translate(1395.81640625, 137.5)"><g class="label" transform="translate(-56.875, -9.5)"><foreignObject width="113.75" height="19"><div xmlns="http://www.w3.org/1999/xhtml" style="display: inline-block; white-space: nowrap;"><span class="edgeLabel">IEvalHostSource</span></div></foreignObject></g></g><g class="edgeLabel" transform="translate(1483.57813, 323.70435)"><g class="label" transform="translate(-19.375, -9.5)"><foreignObject width="38.75" height="19"><div xmlns="http://www.w3.org/1999/xhtml" style="display: inline-block; white-space: nowrap;"><span class="edgeLabel">reads</span></div></foreignObject></g></g></g><g class="nodes"><g class="node default store flowchart-label" id="flowchart-RES-9" data-node="true" data-id="RES" transform="translate(1130.703125, 639.5)"><rect class="basic label-container" style="" rx="0" ry="0" x="-62.484375" y="-17" width="124.96875" height="34"/><g class="label" style="" transform="translate(-54.984375, -9.5)"><rect/><foreignObject width="109.96875" height="19"><div xmlns="http://www.w3.org/1999/xhtml" style="display: inline-block; white-space: nowrap;"><span class="nodeLabel">Reporting store</span></div></foreignObject></g></g><g class="node default store flowchart-label" id="flowchart-CACHE-10" data-node="true" data-id="CACHE" transform="translate(886.09375, 639.5)"><rect class="basic label-container" style="" rx="0" ry="0" x="-104.65625" y="-17" width="209.3125" height="34"/><g class="label" style="" transform="translate(-97.15625, -9.5)"><rect/><foreignObject width="194.3125" height="19"><div xmlns="http://www.w3.org/1999/xhtml" style="display: inline-block; white-space: nowrap;"><span class="nodeLabel">Response and judge caches</span></div></foreignObject></g></g><g class="node default store flowchart-label" id="flowchart-REPORTS-11" data-node="true" data-id="REPORTS" transform="translate(1346.5390625, 639.5)"><rect class="basic label-container" style="" rx="0" ry="0" x="-103.3515625" y="-26.5" width="206.703125" height="53"/><g class="label" style="" transform="translate(-95.8515625, -19)"><rect/><foreignObject width="191.703125" height="38"><div xmlns="http://www.w3.org/1999/xhtml" style="display: inline-block; white-space: nowrap;"><span class="nodeLabel">summary.md / results.json<br />proposals</span></div></foreignObject></g></g><g class="node default out flowchart-label" id="flowchart-CAND-6" data-node="true" data-id="CAND" transform="translate(116.2109375, 639.5)"><rect class="basic label-container" style="" rx="0" ry="0" x="-81.2109375" y="-17" width="162.421875" height="34"/><g class="label" style="" transform="translate(-73.7109375, -9.5)"><rect/><foreignObject width="147.421875" height="19"><div xmlns="http://www.w3.org/1999/xhtml" style="display: inline-block; white-space: nowrap;"><span class="nodeLabel">Candidate endpoints</span></div></foreignObject></g></g><g class="node default out flowchart-label" id="flowchart-JUDGE-7" data-node="true" data-id="JUDGE" transform="translate(604.7578125, 639.5)"><rect class="basic label-container" style="" rx="0" ry="0" x="-86.6796875" y="-26.5" width="173.359375" height="53"/><g class="label" style="" transform="translate(-79.1796875, -19)"><rect/><foreignObject width="158.359375" height="38"><div xmlns="http://www.w3.org/1999/xhtml" style="display: inline-block; white-space: nowrap;"><span class="nodeLabel">Judge: API connection<br />or file exchange</span></div></foreignObject></g></g><g class="node default out flowchart-label" id="flowchart-CAT-8" data-node="true" data-id="CAT" transform="translate(357.75, 639.5)"><rect class="basic label-container" style="" rx="0" ry="0" x="-110.328125" y="-17" width="220.65625" height="34"/><g class="label" style="" transform="translate(-102.828125, -9.5)"><rect/><foreignObject width="205.65625" height="19"><div xmlns="http://www.w3.org/1999/xhtml" style="display: inline-block; white-space: nowrap;"><span class="nodeLabel">Price and capability catalogs</span></div></foreignObject></g></g><g class="node default harness flowchart-label" id="flowchart-HOST-2" data-node="true" data-id="HOST" transform="translate(735.42578125, 233)"><rect class="basic label-container" style="" rx="0" ry="0" x="-99.359375" y="-36" width="198.71875" height="72"/><g class="label" style="" transform="translate(-91.859375, -28.5)"><rect/><foreignObject width="183.71875" height="57"><div xmlns="http://www.w3.org/1999/xhtml" style="display: inline-block; white-space: nowrap;"><span class="nodeLabel">EvalHost<br />one container per cell<br />keyed client replacement</span></div></foreignObject></g></g><g class="node default harness flowchart-label" id="flowchart-RUN-3" data-node="true" data-id="RUN" transform="translate(735.42578125, 374)"><rect class="basic label-container" style="" rx="0" ry="0" x="-89" y="-36" width="178" height="72"/><g class="label" style="" transform="translate(-81.5, -28.5)"><rect/><foreignObject width="163" height="57"><div xmlns="http://www.w3.org/1999/xhtml" style="display: inline-block; white-space: nowrap;"><span class="nodeLabel">SweepRunner<br />probe, gate, estimate,<br />pace, run, evaluate</span></div></foreignObject></g></g><g class="node default harness flowchart-label" id="flowchart-EV-4" data-node="true" data-id="EV" transform="translate(604.7578125, 486.5)"><rect class="basic label-container" style="" rx="0" ry="0" x="-106.9140625" y="-26.5" width="213.828125" height="53"/><g class="label" style="" transform="translate(-99.4140625, -19)"><rect/><foreignObject width="198.828125" height="38"><div xmlns="http://www.w3.org/1999/xhtml" style="display: inline-block; white-space: nowrap;"><span class="nodeLabel">Evaluators<br />hard gates, rubric, pairwise</span></div></foreignObject></g></g><g class="node default harness flowchart-label" id="flowchart-RPT-5" data-node="true" data-id="RPT" transform="translate(1252.98046875, 486.5)"><rect class="basic label-container" style="" rx="0" ry="0" x="-81.3515625" y="-26.5" width="162.703125" height="53"/><g class="label" style="" transform="translate(-73.8515625, -19)"><rect/><foreignObject width="147.703125" height="38"><div xmlns="http://www.w3.org/1999/xhtml" style="display: inline-block; white-space: nowrap;"><span class="nodeLabel">LeaderboardWriter<br />summary and results</span></div></foreignObject></g></g><g class="node default app flowchart-label" id="flowchart-CR-0" data-node="true" data-id="CR" transform="translate(480.4453125, 51.5)"><rect class="basic label-container" style="" rx="0" ry="0" x="-101.3203125" y="-26.5" width="202.640625" height="53"/><g class="label" style="" transform="translate(-93.8203125, -19)"><rect/><foreignObject width="187.640625" height="38"><div xmlns="http://www.w3.org/1999/xhtml" style="display: inline-block; white-space: nowrap;"><span class="nodeLabel">Composition root<br />the real service collection</span></div></foreignObject></g></g><g class="node default app flowchart-label" id="flowchart-WL-1" data-node="true" data-id="WL" transform="translate(783.5859375, 51.5)"><rect class="basic label-container" style="" rx="0" ry="0" x="-151.8203125" y="-26.5" width="303.640625" height="53"/><g class="label" style="" transform="translate(-144.3203125, -19)"><rect/><foreignObject width="288.640625" height="38"><div xmlns="http://www.w3.org/1999/xhtml" style="display: inline-block; white-space: nowrap;"><span class="nodeLabel">Workload code<br />prompt assembly, orchestration, parsing</span></div></foreignObject></g></g><g class="node default default flowchart-label" id="flowchart-DASH-12" data-node="true" data-id="DASH" transform="translate(1410.015625, 51.5)"><rect class="basic label-container" style="" rx="0" ry="0" x="-83.6484375" y="-26.5" width="167.296875" height="53"/><g class="label" style="" transform="translate(-76.1484375, -19)"><rect/><foreignObject width="152.296875" height="38"><div xmlns="http://www.w3.org/1999/xhtml" style="display: inline-block; white-space: nowrap;"><span class="nodeLabel">Dashboard<br />viewer, run and steer</span></div></foreignObject></g></g></g></g></g></svg>